<?xml version="1.0" encoding="UTF-8" standalone="no"?>
<!-- Created with Inkscape (http://www.inkscape.org/) -->

<svg
   xmlns:dc="http://purl.org/dc/elements/1.1/"
   xmlns:cc="http://creativecommons.org/ns#"
   xmlns:rdf="http://www.w3.org/1999/02/22-rdf-syntax-ns#"
   xmlns:svg="http://www.w3.org/2000/svg"
   xmlns="http://www.w3.org/2000/svg"
   xmlns:sodipodi="http://sodipodi.sourceforge.net/DTD/sodipodi-0.dtd"
   xmlns:inkscape="http://www.inkscape.org/namespaces/inkscape"
   width="115.254mm"
   height="30mm"
   viewBox="0 0 115.254 30"
   version="1.1"
   id="svg5274"
   inkscape:version="0.92.4 (5da689c313, 2019-01-14)"
   sodipodi:docname="Shell logo.svg">
  <defs
     id="defs5268" />
  <sodipodi:namedview
     id="base"
     pagecolor="#ffffff"
     bordercolor="#666666"
     borderopacity="1.0"
     inkscape:pageopacity="0.0"
     inkscape:pageshadow="2"
     inkscape:zoom="1.979899"
     inkscape:cx="257.88356"
     inkscape:cy="97.795301"
     inkscape:document-units="mm"
     inkscape:current-layer="layer1"
     showgrid="false"
     inkscape:pagecheckerboard="true"
     inkscape:window-width="1920"
     inkscape:window-height="1017"
     inkscape:window-x="-8"
     inkscape:window-y="-8"
     inkscape:window-maximized="1" />
  <metadata
     id="metadata5271">
    <rdf:RDF>
      <cc:Work
         rdf:about="">
        <dc:format>image/svg+xml</dc:format>
        <dc:type
           rdf:resource="http://purl.org/dc/dcmitype/StillImage" />
        <dc:title></dc:title>
      </cc:Work>
    </rdf:RDF>
  </metadata>
  <g
     inkscape:label="Layer 1"
     inkscape:groupmode="layer"
     id="layer1"
     transform="translate(0,-267)">
    <g
       id="g5230"
       transform="matrix(0.9999709,0,0,0.9999709,320.0619,100.67075)"
       style="opacity:1">
      <path
         inkscape:connector-curvature="0"
         id="path5077-9-7"
         d="m -304.18231,196.31467 c -0.4791,-0.061 -0.901,-0.2484 -1.2804,-0.5702 l -0.2084,-0.1768 -4.1759,-0.017 -4.1759,-0.017 -0.021,-0.1597 c -0.012,-0.088 -0.1724,-1.4501 -0.3572,-3.0274 l -0.3359,-2.8678 -0.1028,-0.086 c -0.057,-0.048 -0.8439,-0.6147 -1.7498,-1.2602 -1.7658,-1.2584 -2.9635,-2.141 -3.0681,-2.2608 -0.037,-0.042 -0.099,-0.2586 -0.1437,-0.5005 -0.4112,-2.2192 -0.3521,-4.4468 0.1754,-6.6075 0.4623,-1.8934 1.3859,-3.8992 2.5409,-5.5175 1.0702,-1.4995 2.5249,-2.9434 4.0316,-4.0016 4.1409,-2.9082 9.4221,-3.6913 14.1867,-2.1038 4.0491,1.3491 7.4605,4.2778 9.4127,8.0807 0.8998,1.7529 1.4149,3.3972 1.6828,5.3723 0.093,0.6886 0.1147,2.6179 0.037,3.3629 -0.065,0.626 -0.1832,1.3929 -0.2653,1.7234 -0.047,0.1893 -0.059,0.2009 -0.6874,0.6724 -0.3517,0.264 -1.459,1.0649 -2.4608,1.78 -1.0018,0.715 -1.8261,1.3035 -1.8317,1.3077 -0.01,0 -0.1672,1.3402 -0.3591,2.9686 -0.1919,1.6285 -0.3571,2.9978 -0.3671,3.043 l -0.018,0.082 -4.1823,0.018 -4.1822,0.018 -0.2058,0.1851 c -0.4791,0.4308 -1.2077,0.6474 -1.8882,0.5614 z m 0.9004,-2.8557 c 0.2815,-0.1324 0.64,-0.3737 0.936,-0.6299 l 0.1773,-0.1535 h 2.981 2.9809 l 0.019,-0.087 c 0.01,-0.048 0.1498,-1.1248 0.3097,-2.393 0.266,-2.1092 0.2978,-2.3116 0.3727,-2.373 0.045,-0.037 1.1137,-0.8111 2.3747,-1.7204 1.2611,-0.9094 2.3304,-1.6873 2.3764,-1.7287 0.063,-0.057 0.1036,-0.1814 0.165,-0.5079 0.2661,-1.4149 0.1456,-2.766 -0.3427,-3.8429 -0.063,-0.1385 -0.1284,-0.2519 -0.1457,-0.2519 -0.017,0 -1.9125,1.9106 -4.2114,4.2458 -2.299,2.3352 -4.1881,4.2376 -4.1982,4.2276 -0.01,-0.01 1.8132,-2.26 4.0517,-4.9999 2.2385,-2.7398 4.0876,-5.0144 4.109,-5.0545 0.1619,-0.3024 -0.772,-2.1642 -1.5601,-3.1103 -0.1917,-0.2302 -0.5086,-0.4976 -0.5439,-0.459 -0.01,0.01 -1.6758,2.8972 -3.7068,6.4194 -2.0309,3.5223 -3.7,6.3967 -3.709,6.3877 -0.01,-0.01 1.4668,-3.1775 3.2795,-7.0412 l 3.2959,-7.0248 -0.084,-0.1495 c -0.1825,-0.3247 -1.12,-1.1543 -1.8061,-1.5982 -0.565,-0.3654 -1.4796,-0.7292 -1.5803,-0.6285 -0.015,0.015 -1.0517,3.6151 -2.3043,8.0006 -1.2526,4.3855 -2.2786,7.9471 -2.2801,7.9147 0,-0.032 0.7453,-3.7867 1.6595,-8.3429 l 1.6621,-8.2839 -0.1604,-0.1099 c -0.4014,-0.2752 -1.0976,-0.5356 -1.8246,-0.6824 -0.608,-0.1228 -1.4645,-0.1922 -1.843,-0.1492 l -0.2907,0.033 -0.028,0.1356 c -0.015,0.075 -0.1685,3.8153 -0.3406,8.3127 -0.3108,8.1255 -0.3548,9.1782 -0.3774,9.0297 -0.01,-0.043 -0.1673,-3.9819 -0.3572,-8.7539 -0.2274,-5.7142 -0.3596,-8.6907 -0.3871,-8.7183 -0.027,-0.026 -0.2645,-0.041 -0.6517,-0.04 -0.8367,0 -1.5992,0.1278 -2.3731,0.3903 -0.2798,0.095 -0.8747,0.3829 -1.0193,0.4934 -0.066,0.051 0.016,0.4812 1.5998,8.3762 0.9182,4.5776 1.6646,8.3363 1.6587,8.3527 -0.01,0.016 -1.0375,-3.5702 -2.2923,-7.9701 -2.1339,-7.4825 -2.2869,-7.9999 -2.3655,-7.9999 -0.1627,0 -0.5358,0.1183 -0.8586,0.2724 -0.8724,0.4164 -2.2897,1.5686 -2.5052,2.0365 -0.031,0.067 0.5434,1.3181 3.2786,7.1478 1.8237,3.887 3.3097,7.0732 3.3023,7.0806 -0.01,0.01 -1.6747,-2.869 -3.7052,-6.3921 -2.0305,-3.523 -3.7124,-6.4278 -3.7375,-6.455 -0.037,-0.04 -0.077,-0.027 -0.2049,0.066 -0.5911,0.4281 -1.8055,2.4986 -1.9329,3.2954 -0.022,0.1399 0.023,0.1971 4.15,5.2488 2.295,2.809 4.167,5.113 4.1601,5.1198 -0.01,0.01 -1.9309,-1.9375 -4.2755,-4.3208 l -4.2629,-4.3333 -0.1126,0.219 c -0.5149,1.0013 -0.6501,2.4465 -0.369,3.9431 l 0.081,0.43 2.4529,1.7707 c 2.4007,1.7331 2.4533,1.7738 2.4717,1.9146 0.01,0.079 0.1472,1.1597 0.304,2.4013 l 0.2851,2.2574 h 2.9811 2.981 l 0.2562,0.207 c 0.3255,0.2629 0.5496,0.4134 0.8182,0.5493 0.3075,0.1556 0.3763,0.1721 0.6781,0.1619 0.2127,-0.01 0.329,-0.036 0.5385,-0.1348 z"
         style="opacity:1;fill:#ffffff;fill-opacity:1;fill-rule:nonzero;stroke:none;stroke-width:0.14647141;stroke-linecap:round;stroke-linejoin:round;stroke-miterlimit:4;stroke-dasharray:none;stroke-dashoffset:0;stroke-opacity:1;paint-order:normal" />
      <g
         style="fill:#ffffff;fill-opacity:1"
         transform="matrix(0.10166975,0,0,0.10166975,-224.53421,249.20797)"
         id="g5209">
        <path
           style="opacity:1;fill:#ffffff;fill-opacity:1;fill-rule:nonzero;stroke:none;stroke-width:1.90894973;stroke-linecap:round;stroke-linejoin:round;stroke-miterlimit:4;stroke-dasharray:none;stroke-dashoffset:0;stroke-opacity:1;paint-order:normal"
           d="m -1965.8991,-2227.5963 c -0.4542,-0.1193 -0.9656,-0.9155 -1.1364,-1.7693 -0.408,-2.0403 -0.3936,-295.5679 0.015,-298.0381 l 0.314,-1.8998 85.0204,0.1321 c 80.8356,0.1255 85.0647,0.1764 85.9222,1.0336 0.8435,0.8433 0.9109,2.95 1.0416,32.5665 0.1452,32.8977 0.09,33.901 -1.9436,34.989 -0.5599,0.2997 -17.2214,0.4904 -43.4935,0.4979 -38.6814,0.011 -45.7425,0.1992 -46.7928,1.248 -0.4354,0.4348 -0.7472,39.2111 -0.338,42.0343 0.2803,1.9339 0.4812,2.1786 2.1743,2.6489 1.2033,0.3342 16.2543,0.5191 42.3979,0.5209 39.857,0 40.5492,0.02 41.5425,1.013 0.9891,0.9891 1.0102,1.6836 1.0102,33.335 0,31.6515 -0.021,32.3459 -1.0102,33.335 -0.7732,0.7732 -1.6914,1.0122 -3.9143,1.0189 -1.5973,0 -20.5839,0.062 -42.1924,0.1263 -34.2824,0.1026 -39.3503,0.2141 -39.7757,0.8752 -0.7979,1.2402 -0.3936,45.2467 0.4233,46.0633 0.5245,0.5244 9.589,0.7069 45.122,0.9087 l 44.4656,0.2526 1.255,1.4593 1.2551,1.4593 -0.1626,31.9843 c -0.1869,36.7684 0.3264,33.4833 -5.3305,34.1146 -3.5135,0.3921 -164.3853,0.4798 -165.8687,0.09 z"
           id="path5156"
           inkscape:connector-curvature="0"
           transform="scale(0.26458333)" />
        <path
           style="opacity:1;fill:#ffffff;fill-opacity:1;fill-rule:nonzero;stroke:none;stroke-width:3.81789947;stroke-linecap:round;stroke-linejoin:round;stroke-miterlimit:4;stroke-dasharray:none;stroke-dashoffset:0;stroke-opacity:1;paint-order:normal"
           d="m -1679.0885,-2221.6191 c -21.8581,-3.5693 -35.0293,-8.2232 -49.2068,-17.3865 -19.3231,-12.4892 -35.2116,-32.3003 -42.7083,-53.2525 -7.8023,-21.8063 -8.1539,-51.1461 -0.8701,-72.6202 8.8024,-25.9511 25.1912,-46.1405 48.1519,-59.3184 5.7578,-3.3046 13.1939,-6.8466 14.374,-6.8466 0.5859,0 2.4126,-0.6967 4.0594,-1.5483 1.6467,-0.8516 4.9198,-1.9559 7.2734,-2.4541 2.3536,-0.4981 7.4613,-1.6463 11.3504,-2.5515 9.5527,-2.2233 36.7648,-2.3204 45.9619,-0.164 12.1541,2.8498 14.0282,3.4437 20.6621,6.5481 5.7821,2.7057 6.6208,3.4495 6.6819,5.9251 0.4282,17.3572 -0.2271,58.4456 -0.9435,59.162 -0.5613,0.5614 -3.2169,-0.3485 -6.7427,-2.3102 -9.7225,-5.4095 -19.2417,-8.3165 -28.9417,-8.8382 -7.5299,-0.405 -9.948,-0.095 -16.9978,2.1788 -13.8877,4.4795 -21.0471,10.6178 -27.4639,23.5468 -3.7073,7.4698 -4.1575,9.2096 -4.6071,17.804 -1.3369,25.5602 11.026,43.1749 34.6141,49.3178 14.8079,3.8564 29.943,1.0758 44.5431,-8.1833 2.6676,-1.6917 5.2046,-2.7214 5.6378,-2.2881 0.4333,0.4332 0.8361,14.4065 0.8951,31.0517 l 0.1073,30.2639 -2.271,1.5274 c -4.7313,3.1819 -16.9117,7.3072 -27.1054,9.1801 -9.8003,1.8005 -29.057,2.4641 -36.4541,1.2562 z"
           id="path5158"
           inkscape:connector-curvature="0"
           transform="scale(0.26458333)" />
        <path
           style="opacity:1;fill:#ffffff;fill-opacity:1;fill-rule:nonzero;stroke:none;stroke-width:3.81789947;stroke-linecap:round;stroke-linejoin:round;stroke-miterlimit:4;stroke-dasharray:none;stroke-dashoffset:0;stroke-opacity:1;paint-order:normal"
           d="m -1494.8288,-2220.9331 c -10.6398,-1.1497 -27.7313,-5.2004 -34.252,-8.1176 -1.1112,-0.4972 -4.5204,-2.0314 -7.5762,-3.4095 -22.373,-10.0898 -40.7577,-27.7863 -51.5139,-49.5856 -5.5965,-11.3425 -8.8267,-22.6929 -10.4928,-36.8706 -1.3294,-11.3121 -0.4421,-28.1631 1.9426,-36.8912 0.9077,-3.3221 1.9977,-7.404 2.4222,-9.0707 2.3496,-9.2261 10.2074,-23.3972 18.7911,-33.889 9.5472,-11.6695 25.7862,-23.8727 39.861,-29.9544 10.1228,-4.3741 12.9666,-5.3935 20.7081,-7.4234 39.9267,-10.4691 83.3098,-4.2796 115.3697,16.4598 8.0141,5.1843 21.366,17.9364 27.2413,26.0176 11.0532,15.2032 17.6135,32.9581 19.0354,51.5178 0.3618,4.7225 0.7873,9.95 0.9455,11.6168 1.0791,11.3641 -4.7788,36.5407 -11.7519,50.5076 -2.8015,5.6115 -10.7244,16.7406 -16.1936,22.747 -11.3994,12.519 -29.0324,23.5227 -47.62,29.7168 -17.9856,5.9935 -46.5803,8.826 -66.9165,6.6286 z m 27.8643,-66.2237 c 16.616,-3.9161 28.066,-14.0745 33.2675,-29.5147 3.4695,-10.2992 2.6379,-24.0898 -2.0546,-34.0729 -2.6059,-5.5438 -10.6167,-14.5968 -16.4587,-18.6001 -8.785,-6.0199 -24.6383,-8.1066 -36.1545,-4.7587 -15.3586,4.4648 -28.1715,18.5683 -31.577,34.7575 -1.3605,6.4675 -1.3642,8.1582 -0.033,15.1183 1.7126,8.9523 6.3914,18.8128 11.3483,23.9161 4.4926,4.6255 12.9113,10.0256 17.9312,11.502 12.5038,3.6775 14.5377,3.8191 23.7305,1.6525 z"
           id="path5160"
           inkscape:connector-curvature="0"
           transform="scale(0.26458333)" />
        <path
           style="opacity:1;fill:#ffffff;fill-opacity:1;fill-rule:nonzero;stroke:none;stroke-width:3.81789947;stroke-linecap:round;stroke-linejoin:round;stroke-miterlimit:4;stroke-dasharray:none;stroke-dashoffset:0;stroke-opacity:1;paint-order:normal"
           d="m -1336.0746,-2304.6657 c -0.7597,-1.2292 -0.8049,-59.5238 -0.047,-60.7499 0.3779,-0.6116 21.7817,-0.9779 57.1383,-0.9779 h 56.5339 l 0.7917,2.2728 c 0.4355,1.2501 0.7126,14.9362 0.6158,30.4136 -0.1421,22.7259 -0.445,28.3112 -1.5743,29.0265 -1.8532,1.1736 -112.7332,1.1882 -113.4583,0.015 z"
           id="path5162"
           inkscape:connector-curvature="0"
           transform="scale(0.26458333)" />
        <path
           style="opacity:1;fill:#ffffff;fill-opacity:1;fill-rule:nonzero;stroke:none;stroke-width:3.81789947;stroke-linecap:round;stroke-linejoin:round;stroke-miterlimit:4;stroke-dasharray:none;stroke-dashoffset:0;stroke-opacity:1;paint-order:normal"
           d="m -744.21597,-2221.9295 c -5.76801,-0.8479 -14.55999,-3.2431 -22.70475,-6.1855 -15.06958,-5.444 -36.61875,-22.7049 -45.89021,-36.7582 -4.11085,-6.231 -12.11141,-21.3325 -13.11157,-24.7487 -5.58054,-19.0615 -5.85427,-20.6978 -6.36975,-38.0794 -0.54233,-18.2865 0.25469,-24.7835 4.84116,-39.4629 8.82211,-28.2361 29.89368,-52.0966 56.83311,-64.3553 20.32972,-9.2509 48.71375,-11.1841 68.98125,-4.6981 11.15869,3.571 16.59329,6.5195 29.88086,16.2116 2.72621,1.9886 3.79458,0.1164 3.81464,-6.6845 0.008,-2.8841 0.46056,-5.5188 1.00456,-5.855 0.54401,-0.3362 16.98581,-0.6057 36.53733,-0.5988 27.82577,0.01 35.72699,0.2942 36.37108,1.3093 0.45256,0.7132 0.82981,46.6546 0.83832,102.092 l 0.0154,100.7953 -2.13047,0.7881 c -2.73012,1.01 -55.71216,1.3078 -65.04467,0.3657 l -7.07107,-0.7138 -0.29503,-7.8287 c -0.17563,-4.6604 -0.72878,-7.8287 -1.3668,-7.8287 -0.58949,0 -3.36943,2.0658 -6.17765,4.5906 -9.79813,8.8094 -21.33765,14.2668 -36.0796,17.0633 -8.56966,1.6257 -23.92574,1.8973 -32.8762,0.5817 z m 45.22629,-65.4173 c 5.90018,-1.6385 14.0133,-6.1598 18.31386,-10.2061 4.65909,-4.3836 11.25074,-14.1603 12.57956,-18.6579 3.29151,-11.1407 3.5724,-14.659 1.7674,-22.1373 -2.49946,-10.3556 -6.01133,-16.8765 -12.56418,-23.3293 -12.5018,-12.311 -30.34879,-16.6635 -45.8708,-11.187 -7.81459,2.7571 -16.74832,9.4257 -21.40036,15.9744 -17.76362,25.0056 -6.73017,58.5922 22.74923,69.2501 5.95953,2.1546 17.23474,2.2899 24.42529,0.2931 z"
           id="path5166"
           inkscape:connector-curvature="0"
           transform="scale(0.26458333)" />
        <path
           style="opacity:1;fill:#ffffff;fill-opacity:1;fill-rule:nonzero;stroke:none;stroke-width:3.81789947;stroke-linecap:round;stroke-linejoin:round;stroke-miterlimit:4;stroke-dasharray:none;stroke-dashoffset:0;stroke-opacity:1;paint-order:normal"
           d="m -1056.2873,-2227.801 c -3.8659,-0.167 -7.6161,-0.7908 -8.3338,-1.3864 -1.0392,-0.8625 -1.3048,-13.1775 -1.3048,-60.5085 0,-61.4478 -0.2485,-65.7949 -4.2512,-74.3669 -3.6044,-7.7188 -16.4607,-15.4627 -25.6709,-15.4627 -6.0643,0 -14.6746,4.024 -20.3431,9.5073 -10.2004,9.8673 -11.0702,16.9641 -11.1369,90.866 -0.025,27.7736 -0.4414,49.7576 -0.9521,50.2683 -0.5127,0.5126 -16.4827,0.7919 -36.7044,0.6419 l -35.7967,-0.2657 v -102.0254 -102.0254 l 35.7967,-0.2657 c 20.771,-0.1542 36.1859,0.1235 36.7238,0.6614 0.5099,0.5098 1.1708,4.8341 1.4688,9.6095 0.4052,6.4961 0.8966,8.6826 1.9511,8.6826 0.7752,0 4.3569,-2.2591 7.9593,-5.0202 15.8796,-12.171 26.4583,-15.915 49.9455,-17.6764 9.1685,-0.6876 26.4133,1.5225 34.8502,4.4663 13.2397,4.6196 25.3213,14.066 35.3426,27.6341 1.10414,1.4949 2.30098,2.718 2.65964,2.718 0.35867,0 3.23224,-3.0224 6.38571,-6.7164 12.241,-14.3394 26.87642,-23.1228 44.40319,-26.6486 21.05721,-4.2359 41.14966,-1.1671 58.55535,8.9436 5.82611,3.3843 18.82364,15.6848 18.82364,17.8142 0,0.5981 1.05439,2.6704 2.34309,4.605 2.66142,3.9954 5.41887,12.3121 6.93086,20.9041 0.60221,3.4221 1.22805,36.2458 1.50911,79.1489 0.41304,63.0505 0.27634,73.4712 -0.97754,74.5118 -1.08535,0.9008 -10.58772,1.142 -37.19888,0.9442 l -35.74117,-0.2656 -0.50508,-61.6193 c -0.49274,-60.1145 -0.55853,-61.7607 -2.69398,-67.4064 -3.54254,-9.3659 -6.49776,-12.9298 -14.67595,-17.699 -5.55356,-3.2386 -17.45025,-3.2386 -23.40371,0 -2.29798,1.2501 -4.32967,2.6138 -4.51486,3.0305 -0.1852,0.4167 -0.94206,0.7576 -1.68192,0.7576 -2.61806,0 -9.12171,8.8227 -11.6364,15.7856 l -2.50741,6.9428 -0.50507,59.7685 c -0.27779,32.8727 -0.74324,60.0062 -1.03433,60.2966 -0.60687,0.6056 -53.49079,1.3069 -64.07839,0.8498 z"
           id="path5168"
           inkscape:connector-curvature="0"
           transform="scale(0.26458333)" />
        <path
           style="opacity:1;fill:#ffffff;fill-opacity:1;fill-rule:nonzero;stroke:none;stroke-width:3.81789947;stroke-linecap:round;stroke-linejoin:round;stroke-miterlimit:4;stroke-dasharray:none;stroke-dashoffset:0;stroke-opacity:1;paint-order:normal"
           d="m -557.81914,-2227.881 -2.52538,-0.7177 -0.27746,-99.9596 c -0.1526,-54.9778 -0.0303,-100.9824 0.27179,-102.2325 l 0.54924,-2.2728 h 35.78155 c 21.49052,0 36.01826,0.383 36.3742,0.9589 0.32596,0.5274 0.78284,6.2608 1.01529,12.7408 0.23245,6.48 0.60372,11.963 0.82505,12.1843 0.22133,0.2213 2.78927,-2.1213 5.70653,-5.2059 12.09368,-12.7873 27.88395,-20.781 45.04833,-22.8053 11.87118,-1.4 25.82151,-0.8993 28.11997,1.0094 1.52498,1.2664 1.68708,4.6421 1.61561,33.6454 -0.0437,17.7307 -0.33111,32.8936 -0.63871,33.6952 -0.7006,1.8257 -2.67735,1.8471 -6.75646,0.073 -7.79852,-3.3917 -12.58662,-4.1707 -25.42798,-4.1372 -13.36964,0.035 -15.54805,0.4645 -24.67881,4.8679 -5.82237,2.8079 -14.11295,11.0395 -16.93662,16.8161 -6.11512,12.5101 -7.33538,25.7128 -7.34682,79.4899 -0.007,31.3654 -0.29582,40.7835 -1.27133,41.4101 -1.57668,1.0128 -65.99629,1.4209 -69.44799,0.4399 z"
           id="path5170"
           inkscape:connector-curvature="0"
           transform="scale(0.26458333)" />
        <path
           style="opacity:1;fill:#ffffff;fill-opacity:1;fill-rule:nonzero;stroke:none;stroke-width:3.81789947;stroke-linecap:round;stroke-linejoin:round;stroke-miterlimit:4;stroke-dasharray:none;stroke-dashoffset:0;stroke-opacity:1;paint-order:normal"
           d="m -308.81654,-2221.5069 c -1.11117,-0.2606 -4.74771,-0.9619 -8.08122,-1.5585 -9.72404,-1.7401 -22.03377,-6.631 -32.32488,-12.8431 -7.75443,-4.6809 -9.48239,-6.0908 -18.83921,-15.3717 -14.95829,-14.8368 -24.76688,-33.5846 -30.10146,-57.5346 -1.61229,-7.2386 -1.30458,-37.0834 0.47059,-45.6434 9.06139,-43.6944 38.33678,-74.0523 80.79496,-83.7824 3.88148,-0.8895 11.69114,-1.3527 21.71828,-1.2881 13.91867,0.09 16.66693,0.4038 24.74874,2.8287 11.79237,3.5382 17.14414,6.3876 32.37533,17.2377 2.06804,1.4732 2.72165,0.1665 3.38478,-6.7666 l 0.60538,-6.3296 31.31473,-0.5051 c 17.2231,-0.2778 33.58757,-0.2778 36.36549,0 l 5.05076,0.5051 0.25733,102.1626 0.25734,102.1626 -3.2878,0.4978 c -5.47851,0.8295 -62.63116,0.7743 -66.42232,-0.064 -3.46875,-0.7672 -3.54048,-0.8862 -3.79739,-6.3008 -0.46176,-9.7318 -1.45487,-11.6837 -4.46421,-8.7738 -8.95988,8.6637 -20.65759,15.4212 -32.96394,19.0425 -6.56659,1.9323 -31.94703,3.5245 -37.06128,2.3249 z m 43.01719,-66.1769 c 15.39852,-4.996 25.67592,-14.9357 30.85978,-29.8458 2.21578,-6.3731 2.22377,-19.2965 0.0165,-26.6518 -1.97192,-6.5712 -10.595,-18.3943 -16.39306,-22.4765 -15.69781,-11.0522 -35.87481,-11.3961 -50.93439,-0.8679 -24.16069,16.8908 -26.42321,50.226 -4.75122,70.0029 11.88105,10.8421 26.99016,14.4502 41.20242,9.8391 z"
           id="path5172"
           inkscape:connector-curvature="0"
           transform="scale(0.26458333)" />
        <path
           style="opacity:1;fill:#ffffff;fill-opacity:1;fill-rule:nonzero;stroke:none;stroke-width:3.81789947;stroke-linecap:round;stroke-linejoin:round;stroke-miterlimit:4;stroke-dasharray:none;stroke-dashoffset:0;stroke-opacity:1;paint-order:normal"
           d="m -100.1513,-2227.6932 c -8.513,-0.2144 -15.13243,-0.8269 -15.90991,-1.4721 -1.07822,-0.8949 -1.33142,-14.3425 -1.33142,-70.7136 0,-61.3713 -0.18183,-69.6783 -1.53653,-70.1981 -0.84509,-0.3243 -5.95899,-0.8783 -11.36422,-1.231 l -9.82768,-0.6414 -0.50508,-21.7183 c -0.27779,-11.945 -0.27779,-25.5821 0,-30.3045 l 0.50508,-8.5863 9.82768,-0.6414 c 5.40523,-0.3527 10.51913,-0.9067 11.36422,-1.231 1.32524,-0.5085 1.53653,-4.525 1.53653,-29.2086 0,-20.9124 0.32642,-28.9455 1.21218,-29.8312 0.89689,-0.8969 10.45912,-1.2122 36.762495,-1.2122 31.485377,0 35.62042,0.1827 36.163462,1.5978 0.337233,0.8789 0.613151,14.2726 0.613151,29.764 0,27.5303 0.04758,28.1916 2.109754,29.2952 1.160372,0.621 4.001426,1.0305 6.313454,0.9101 2.312037,-0.1205 10.454018,-0.1581 18.093296,-0.084 l 13.8895978,0.1357 v 30.8097 c 0,23.9356 -0.2817214,30.8258 -1.2626906,30.882 -0.6944799,0.04 -9.2176422,0.1534 -18.9403602,0.2525 -9.722718,0.099 -18.24588,0.5479 -18.94036,0.9974 -0.990172,0.6409 -1.262691,15.9438 -1.262691,70.9036 0,54.9733 -0.272281,70.2572 -1.262691,70.8783 -1.379438,0.8652 -33.093647,1.2299 -56.247267,0.6469 z"
           id="path5174"
           inkscape:connector-curvature="0"
           transform="scale(0.26458333)" />
        <path
           style="opacity:1;fill:#ffffff;fill-opacity:1;fill-rule:nonzero;stroke:none;stroke-width:3.81789947;stroke-linecap:round;stroke-linejoin:round;stroke-miterlimit:4;stroke-dasharray:none;stroke-dashoffset:0;stroke-opacity:1;paint-order:normal"
           d="m 12.921781,-2228.1986 c -2.024753,-0.749 -2.030308,-1.2658 -1.775535,-165.1851 l 0.255573,-164.4337 h 36.870568 36.870568 l 0.259328,70.8577 c 0.293344,80.1515 -0.302035,75.1813 8.177436,68.2645 8.781441,-7.1631 12.358781,-9.4896 19.642591,-12.7743 10.16514,-4.5842 18.95831,-6.0584 36.06533,-6.0465 14.67481,0.01 22.66747,1.1976 33.33504,4.9527 15.59443,5.4893 32.58825,21.0627 39.14299,35.8713 6.00187,13.5596 6.31387,18.3444 6.31387,96.8304 0,66.5855 -0.10786,70.9565 -1.76777,71.6381 -2.30747,0.9476 -68.90828,0.9476 -71.21575,0 -1.65515,-0.6796 -1.76934,-4.5409 -1.79247,-60.6091 -0.0151,-36.5762 -0.42205,-61.6525 -1.04563,-64.429 -2.44255,-10.8754 -6.88822,-16.9704 -15.40416,-21.1191 -5.65945,-2.7571 -7.44056,-3.1245 -15.1473,-3.1245 -7.49183,0 -9.64247,0.4162 -15.12471,2.9271 -7.935799,3.6347 -12.142105,7.1177 -15.485394,12.8226 -5.326296,9.0886 -5.423397,10.4075 -5.436335,73.8417 -0.0092,45.2275 -0.296811,58.9578 -1.247195,59.5452 -1.608031,0.9938 -68.831938,1.1537 -71.491045,0.17 z"
           id="path5176"
           inkscape:connector-curvature="0"
           transform="scale(0.26458333)" />
        <path
           style="opacity:1;fill:#ffffff;fill-opacity:1;fill-rule:nonzero;stroke:none;stroke-width:3.81789947;stroke-linecap:round;stroke-linejoin:round;stroke-miterlimit:4;stroke-dasharray:none;stroke-dashoffset:0;stroke-opacity:1;paint-order:normal"
           d="m 355.35876,-2220.9265 c -14.51131,-1.2392 -23.87922,-3.3445 -35.86041,-8.059 -7.98106,-3.1405 -22.29628,-10.9125 -27.7792,-15.0818 -24.69187,-18.7763 -36.77709,-39.6048 -42.32465,-72.9452 -2.50798,-15.0728 -0.0138,-37.6881 5.72462,-51.9064 10.52387,-26.0754 27.27944,-44.3559 52.67941,-57.4739 38.34444,-19.8032 92.71215,-19.5222 130.39274,0.674 20.57377,11.0272 33.11833,23.0105 43.59806,41.6476 5.81253,10.337 8.03326,16.1767 12.10033,31.8198 0.67826,2.6088 1.18091,11.8628 1.17965,21.7183 -0.002,14.2959 -0.37015,18.6246 -2.19872,25.8405 -3.52607,13.9147 -7.88617,23.9844 -14.92502,34.4698 -23.89858,35.6004 -69.27739,53.8487 -122.58681,49.2963 z M 381.982,-2287.18 c 6.83066,-1.7595 12.55277,-4.184 14.61263,-6.1917 0.73416,-0.7155 1.67321,-1.301 2.08677,-1.301 2.00054,0 10.67524,-10.2836 13.20774,-15.6574 9.12235,-19.357 5.84023,-38.1988 -9.26684,-53.1984 -10.03266,-9.9613 -21.50337,-13.7208 -36.26004,-11.8842 -17.60026,2.1905 -32.34794,15.2651 -37.27547,33.0467 -2.42957,8.7674 -2.52221,13.6141 -0.41558,21.7438 1.96189,7.5712 3.63469,10.9145 8.60053,17.1889 6.93676,8.7649 15.83844,14.2489 26.67332,16.4325 8.36562,1.686 10.89286,1.6609 18.03694,-0.1792 z"
           id="path5178"
           inkscape:connector-curvature="0"
           transform="scale(0.26458333)" />
        <path
           style="opacity:1;fill:#ffffff;fill-opacity:1;fill-rule:nonzero;stroke:none;stroke-width:2.69966269;stroke-linecap:round;stroke-linejoin:round;stroke-miterlimit:4;stroke-dasharray:none;stroke-dashoffset:0;stroke-opacity:1;paint-order:normal"
           d="m 519.9531,-2227.8895 c -0.78572,-0.189 -1.66454,-0.5645 -1.95294,-0.8344 -0.2884,-0.2699 -0.54124,-45.9387 -0.56187,-101.4861 -0.0322,-86.7654 0.10674,-101.1397 0.98623,-102.0192 0.84411,-0.8441 6.01863,-1.076 29.49044,-1.3216 15.65669,-0.1638 31.84171,-0.048 35.96671,0.2578 l 7.5,0.5557 0.43886,8.5714 c 0.59068,11.5363 0.53134,11.0714 1.41308,11.0714 0.42928,0 2.75781,-1.7893 5.17452,-3.9763 8.49132,-7.6842 14.72433,-11.7435 24.07539,-15.6793 9.41618,-3.9633 28.83542,-6.1198 42.74852,-4.7474 12.93764,1.2762 20.46811,3.1391 28.1718,6.9691 1.11219,0.5529 2.36209,1.0053 2.77756,1.0053 1.81113,0 12.86473,8.2664 18.58584,13.8994 6.78183,6.6773 9.16047,10.0239 14.48993,20.3864 l 3.48992,6.7857 0.26071,78.1899 c 0.14338,43.0045 0.0626,79.2455 -0.17937,80.5357 l -0.44007,2.3458 -34.43191,-0.01 c -26.31892,-0.01 -34.85268,-0.2234 -36.21764,-0.9137 l -1.78571,-0.9031 -0.35714,-62.4792 c -0.26233,-45.8915 -0.58107,-62.9533 -1.20057,-64.2649 -0.46388,-0.9822 -1.02146,-2.6257 -1.23907,-3.6523 -0.78981,-3.726 -5.85599,-10.1774 -9.92218,-12.6352 -7.03002,-4.2492 -10.64864,-5.24 -19.19316,-5.2556 -8.27997,-0.015 -10.98936,0.6626 -18.44502,4.6132 -8.8171,4.6719 -12.99333,10.0256 -15.89385,20.3752 -1.5066,5.3758 -1.54123,6.6378 -1.76712,64.4118 -0.21118,54.0097 -0.32981,59.0031 -1.42124,59.8214 -0.91744,0.6879 -8.98986,0.8739 -35.16146,0.81 -18.68384,-0.046 -34.61348,-0.2374 -35.39919,-0.4264 z"
           id="path5180"
           inkscape:connector-curvature="0"
           transform="scale(0.26458333)" />
        <path
           style="opacity:1;fill:#ffffff;fill-opacity:1;fill-rule:nonzero;stroke:none;stroke-width:3.81789947;stroke-linecap:round;stroke-linejoin:round;stroke-miterlimit:4;stroke-dasharray:none;stroke-dashoffset:0;stroke-opacity:1;paint-order:normal"
           d="m -1905.2174,-2593.9006 c -10.6594,-0.9664 -16.5844,-2.22 -27.5084,-5.8199 -14.7744,-4.8689 -33.6058,-15.1054 -33.6058,-18.2677 0,-1.8597 1.6993,-5.3512 10.449,-21.4684 2.5049,-4.614 6.1482,-11.3438 8.0963,-14.9551 1.9481,-3.6113 4.1961,-6.7017 4.9955,-6.8676 0.7994,-0.1659 5.0348,2.2686 9.4119,5.4101 14.3053,10.2668 23.3135,13.5793 36.9284,13.5793 4.916,0 9.7275,-0.4166 10.6923,-0.9259 0.9647,-0.5092 3.2539,-1.4828 5.0871,-2.1636 5.0872,-1.8891 9.2938,-8.6728 9.2938,-14.9875 0,-4.2505 -0.516,-5.6739 -3.1405,-8.6631 -3.5166,-4.0051 -13.5702,-9.0402 -25.1437,-12.5926 -29.381,-9.0181 -36.8758,-12.4583 -44.8241,-20.5749 -10.2255,-10.4421 -13.7853,-20.8017 -13.7389,-39.9828 0.081,-33.6022 16.8222,-57.424 47.4513,-67.5218 7.2361,-2.3856 34.6473,-2.8867 46.467,-0.8494 16.5216,2.8477 40.2179,11.5846 42.7177,15.7503 0.6686,1.114 -1.8252,6.9259 -9.065,21.1262 -5.4931,10.7741 -10.7648,20.0797 -11.715,20.6791 -1.2738,0.8034 -2.2957,0.735 -3.8899,-0.2606 -14.8623,-9.2817 -22.5518,-11.7776 -34.0695,-11.0584 -15.935,0.9949 -24.4607,14.7172 -15.0134,24.1644 4.1008,4.1008 8.7194,6.1262 27.4996,12.0594 17.3033,5.4666 24.2493,8.3595 31.948,13.3059 5.3738,3.4527 15.0225,12.6082 15.0235,14.2556 3e-4,0.4698 0.8483,2.0608 1.8844,3.5355 1.0361,1.4748 2.8864,5.5293 4.1118,9.0101 2.734,7.766 3.3476,27.9428 1.19,39.1281 -1.6294,8.4466 -7.44,21.2424 -12.9191,28.4493 -14.5539,19.1438 -45.3373,29.5229 -78.6143,26.506 z"
           id="path5182"
           inkscape:connector-curvature="0"
           transform="scale(0.26458333)" />
        <path
           style="opacity:1;fill:#ffffff;fill-opacity:1;fill-rule:nonzero;stroke:none;stroke-width:3.81789947;stroke-linecap:round;stroke-linejoin:round;stroke-miterlimit:4;stroke-dasharray:none;stroke-dashoffset:0;stroke-opacity:1;paint-order:normal"
           d="m -1793.0183,-2599.4306 c -1.4241,-1.424 -1.5874,-13.1669 -1.5874,-114.1472 v -112.5598 h 26.264 26.264 v 48.4873 c 0,35.7944 0.3033,48.4873 1.1586,48.4873 0.6373,0 3.0238,-1.5039 5.3033,-3.3419 9.3902,-7.5716 15.2734,-9.9173 29.5077,-11.7648 6.979,-0.9058 10.7597,-0.914 15.6574,-0.034 23.6088,4.2419 36.3501,13.9492 44.4015,33.8285 1.8145,4.4803 2.5379,23.3549 2.5005,65.2521 -0.032,35.7981 -0.2986,44.3515 -1.4255,45.7094 -1.2169,1.4663 -4.2584,1.6705 -24.8776,1.6705 -19.1017,0 -23.7145,-0.269 -24.6862,-1.4398 -0.8649,-1.0421 -1.2867,-12.9676 -1.5272,-43.184 -0.2323,-29.1725 -0.7045,-42.9575 -1.5681,-45.773 -1.3069,-4.2608 -6.2648,-9.6284 -11.2971,-12.2307 -7.078,-3.6602 -20.4483,-0.6909 -26.9104,5.9763 -6.0517,6.2438 -6.2369,7.8221 -6.2369,53.1396 0,30.6099 -0.3092,41.3964 -1.2122,42.2994 -0.8733,0.8733 -7.7734,1.2122 -24.6766,1.2122 -19.9844,0 -23.6998,-0.2354 -25.0518,-1.5874 z"
           id="path5184"
           inkscape:connector-curvature="0"
           transform="scale(0.26458333)" />
        <path
           style="opacity:1;fill:#ffffff;fill-opacity:1;fill-rule:nonzero;stroke:none;stroke-width:3.81789947;stroke-linecap:round;stroke-linejoin:round;stroke-miterlimit:4;stroke-dasharray:none;stroke-dashoffset:0;stroke-opacity:1;paint-order:normal"
           d="m -1571.5368,-2595.1852 c -2.5962,-0.6285 -5.0585,-1.4837 -5.4716,-1.9004 -0.4132,-0.4166 -1.7223,-0.7576 -2.9091,-0.7576 -3.7496,0 -18.0082,-7.5773 -24.6329,-13.0904 -8.0274,-6.6805 -15.3234,-16.5546 -19.3952,-26.2486 -3.901,-9.2872 -4.9813,-14.7197 -5.68,-28.5625 -1.5844,-31.3883 12.0216,-57.4483 36.6518,-70.2005 12.9267,-6.6928 24.9045,-9.3294 42.5228,-9.3604 38.3644,-0.067 65.3061,19.4918 74.3596,53.9838 1.5557,5.9268 2.1421,11.2591 2.1704,19.7375 l 0.039,11.6168 -51.0127,0.505 -51.0128,0.5051 0.2236,5.3421 c 0.5945,14.2074 10.6078,22.4371 27.2999,22.4371 9.1946,0 14.8912,-2.4742 19.9717,-8.6742 l 3.6528,-4.4578 23.4184,0.015 c 12.8802,0.01 24.0709,0.4283 24.8683,0.9329 3.4724,2.1972 -5.3839,20.4931 -14.2855,29.512 -6.3038,6.3868 -19.3015,14.2691 -26.4952,16.0677 -1.7026,0.4257 -5.7315,1.4953 -8.9532,2.3768 -6.9903,1.9126 -37.7213,2.0618 -45.3299,0.22 z m 46.5844,-96.5453 c 3.2443,-2.0526 -3.9382,-11.979 -11.3348,-15.6648 -6.7948,-3.386 -19.3009,-3.6679 -25.6938,-0.5791 -7.8218,3.779 -14.5503,14.748 -10.1386,16.5282 2.283,0.9212 45.6752,0.6597 47.1672,-0.2843 z"
           id="path5186"
           inkscape:connector-curvature="0"
           transform="scale(0.26458333)" />
        <path
           style="opacity:1;fill:#ffffff;fill-opacity:1;fill-rule:nonzero;stroke:none;stroke-width:3.81789947;stroke-linecap:round;stroke-linejoin:round;stroke-miterlimit:4;stroke-dasharray:none;stroke-dashoffset:0;stroke-opacity:1;paint-order:normal"
           d="m -1456.4571,-2598.9342 c -1.6669,-0.9709 -1.7678,-7.4804 -1.7678,-114.1166 v -113.0868 h 26.264 26.264 v 112.1933 c 0,75.4059 -0.3429,112.834 -1.0457,114.1472 -0.9885,1.8471 -2.3283,1.9523 -24.4962,1.9232 -14.041,-0.018 -24.1599,-0.4438 -25.2183,-1.0603 z"
           id="path5188"
           inkscape:connector-curvature="0"
           transform="scale(0.26458333)" />
        <path
           style="opacity:1;fill:#ffffff;fill-opacity:1;fill-rule:nonzero;stroke:none;stroke-width:3.81789947;stroke-linecap:round;stroke-linejoin:round;stroke-miterlimit:4;stroke-dasharray:none;stroke-dashoffset:0;stroke-opacity:1;paint-order:normal"
           d="m -1383.7261,-2598.9342 c -1.667,-0.9709 -1.7678,-7.4804 -1.7678,-114.1166 v -113.0868 h 26.264 26.2639 v 112.935 c 0,86.4915 -0.2838,113.2189 -1.2121,114.1472 -1.5543,1.5543 -46.8972,1.6651 -49.548,0.1212 z"
           id="path5190"
           inkscape:connector-curvature="0"
           transform="scale(0.26458333)" />
      </g>
    </g>
  </g>
</svg>
